<svg width="78" height="73" viewBox="0 0 78 73" fill="none" xmlns="http://www.w3.org/2000/svg">
<path d="M75.6758 34.4953L59.291 42.6877L56.9742 0.986132L56.9611 0.75H56.7246H45.0326H44.7978L44.7831 0.984406L42.3908 39.2628L35.5031 42.7066L33.2039 11.669L33.1868 11.4375H32.9546H21.3089H21.0797L21.0599 11.6658L18.6611 39.2527L2.10049 47.5329L1.96229 47.602V47.7565V69.6248H1H0.75V69.8748V72.2V72.45H1H77H77.25V72.2V69.8748V69.6248L77 69.6248L76.0376 69.625V34.7189V34.3144L75.6758 34.4953ZM56.5382 44.0642L52.2877 46.1894V34.7189V34.3144L51.9259 34.4953L45.313 37.8017L46.8583 13.0751H54.8166L56.5382 44.0642ZM32.7713 44.0725L28.5376 46.1894V34.7189V34.3144L28.1758 34.4953L21.6259 37.7703L22.8438 23.7626H31.2668L32.7713 44.0725ZM4.78756 49.3482L25.7123 38.8857V50.3562V50.7607L26.0741 50.5798L49.4623 38.8857V50.3562V50.7607L49.8241 50.5798L73.2124 38.8857V64.8748H33.2876V59.1874V58.9374H33.0376H9.33729H9.08729V59.1874V64.8748H4.78756V49.3482ZM47.3318 5.5L47.4521 3.57513H54.2887L54.3956 5.5H47.3318ZM47.0349 10.2501L47.1552 8.32527H54.5525L54.6595 10.2501H47.0349ZM23.5027 16.1875L23.67 14.2626H30.5632L30.7058 16.1875H23.5027ZM23.0894 20.9375L23.2569 19.0126H30.9149L31.0575 20.9375H23.0894ZM9.08744 69.625H4.78756V67.7001H9.08744V69.625ZM30.4623 69.625H11.9126V61.7626H30.4623V69.625ZM73.2123 69.625H33.2876V67.7001H73.2123V69.625Z" fill="#F78F1E" stroke="#F78F1E" stroke-width="0.5"/>
</svg>
