<svg width="66" height="74" viewBox="0 0 66 74" fill="none" xmlns="http://www.w3.org/2000/svg">
<path d="M15.2194 44.9582C17.2057 48.0869 19.9647 50.6259 23.2314 52.3396V55.0377C23.2314 56.2866 24.0093 57.3538 25.1037 57.7889V65.5983C25.1037 66.7829 25.8955 67.7826 26.9759 68.1043C27.4855 70.9685 29.9927 73.1504 33.0015 73.1504C36.0102 73.1504 38.5173 70.9686 39.027 68.1043C40.1073 67.7826 40.8992 66.7829 40.8992 65.5983V57.789C41.9935 57.3539 42.7715 56.2866 42.7715 55.0378V52.3396C45.999 50.6463 48.7344 48.1441 50.7152 45.065C52.8964 41.6744 54.0493 37.7418 54.0493 33.6929C54.049 28.1219 51.8933 22.8699 47.9794 18.9057C44.0695 14.9454 38.853 12.7226 33.2922 12.6472C27.5978 12.565 22.2263 14.7239 18.2032 18.6908L18.2032 18.6909C14.2449 22.594 12.0259 27.8257 11.9552 33.4208C11.9034 37.523 13.0321 41.5128 15.2194 44.9582ZM38.4277 65.5987V65.6054C38.4243 65.6828 38.3599 65.7451 38.2815 65.7451L28.1179 65.7451L28.1168 65.7451L27.7002 65.7421C27.6283 65.7319 27.5743 65.6708 27.5743 65.5987V64.8393H38.4277V65.5987ZM30.518 48.2609L33.0012 45.7068L35.4844 48.2609L35.5919 48.3715L35.6995 48.2609L36.9473 46.9774V55.5298H29.055V46.9774L30.3029 48.2609L30.4104 48.3715L30.518 48.2609ZM40.3856 50.7577L40.3003 50.7985V50.8931V55.038C40.3003 55.309 40.0795 55.5298 39.8084 55.5298H39.4184V41.2609V40.8914L39.1609 41.1563L35.5921 44.827L33.1089 42.2728L33.0013 42.1621L32.8938 42.2728L30.4106 44.827L26.8418 41.1563L26.5842 40.8914V41.2609V55.5297H26.1942C25.9232 55.5297 25.7024 55.3089 25.7024 55.0378V50.8929V50.7984L25.6171 50.7576L24.9999 50.4625C18.4855 47.3482 14.3349 40.6709 14.426 33.4522C14.5562 23.1693 22.7128 15.1162 32.9974 15.1162C33.0842 15.1162 33.1715 15.1167 33.2586 15.1178C43.3595 15.2548 51.5781 23.5878 51.5781 33.693C51.5781 40.8086 47.4269 47.3916 41.0029 50.4625L40.3856 50.7577ZM33.0012 70.68C31.4038 70.68 30.0421 69.6484 29.5487 68.216H36.4535C35.9603 69.6484 34.5986 70.68 33.0012 70.68ZM38.428 62.3684H27.5745V61.4552H38.428V62.3684ZM38.428 58.9843H27.5745V58.0006H38.428V58.9843Z" fill="#F78F1E" stroke="#F78F1E" stroke-width="0.3"/>
<path d="M46.7446 35.2491L46.5953 35.2349L46.5811 35.3843C46.3079 38.2615 44.1151 41.1694 40.9728 42.774L40.8392 42.8422L40.9074 42.9758L41.8948 44.9092L41.963 45.0428L42.0966 44.9746C45.9548 43.0045 48.6877 39.3383 49.0412 35.6181L49.0554 35.4688L48.9061 35.4546L46.7446 35.2491Z" fill="#F78F1E" stroke="#F78F1E" stroke-width="0.3"/>
<path d="M33.7385 17.2055L33.5885 17.2035L33.5864 17.3534L33.557 19.5241L33.555 19.6741L33.705 19.6762C40.8816 19.7733 46.7208 25.6942 46.7208 32.8738V33.0238H46.8708H49.0417H49.1917L49.1917 32.8738C49.1918 28.7264 47.5868 24.8161 44.6732 21.865L44.5664 21.9704L44.6732 21.865C41.7621 18.9166 37.8784 17.2616 33.7385 17.2055Z" fill="#F78F1E" stroke="#F78F1E" stroke-width="0.3"/>
<path d="M34.2369 1V0.85H34.0869H31.916H31.766V1V8.84705V8.99705H31.916H34.0869H34.2369V8.84705V1Z" fill="#F78F1E" stroke="#F78F1E" stroke-width="0.3"/>
<path d="M9.48091 10.23L9.37484 10.124L9.26878 10.23L7.73378 11.765L7.62771 11.8711L7.73378 11.9772L13.2824 17.5258L13.3885 17.6319L13.4946 17.5258L15.0296 15.9908L15.1356 15.8847L15.0296 15.7787L9.48091 10.23Z" fill="#F78F1E" stroke="#F78F1E" stroke-width="0.3"/>
<path d="M56.7289 10.2281L56.6229 10.122L56.5168 10.2281L50.9682 15.7767L50.8621 15.8828L50.9682 15.9889L52.5032 17.5239L52.6092 17.6299L52.7153 17.5239L58.2639 11.9752L58.37 11.8692L58.2639 11.7631L56.7289 10.2281Z" fill="#F78F1E" stroke="#F78F1E" stroke-width="0.3"/>
<path d="M13.4946 53.4644L13.3885 53.3584L13.2824 53.4644L7.73378 59.0131L7.62771 59.1191L7.73378 59.2252L9.26878 60.7602L9.37484 60.8663L9.48091 60.7602L15.0296 55.2115L15.1356 55.1055L15.0296 54.9994L13.4946 53.4644Z" fill="#F78F1E" stroke="#F78F1E" stroke-width="0.3"/>
<path d="M52.7153 53.4644L52.6092 53.3583L52.5031 53.4644L50.9682 54.9994L50.8621 55.1055L50.9682 55.2115L56.5168 60.7602L56.6229 60.8662L56.7289 60.7602L58.2639 59.2252L58.37 59.1191L58.2639 59.0131L52.7153 53.4644Z" fill="#F78F1E" stroke="#F78F1E" stroke-width="0.3"/>
<path d="M65.7217 34.4102V34.2602H65.5717H57.7246H57.5746V34.4102V36.581V36.731H57.7246H65.5717H65.7217V36.581V34.4102Z" fill="#F78F1E" stroke="#F78F1E" stroke-width="0.3"/>
<path d="M8.42673 34.4102V34.2602H8.27673H0.429688H0.279687V34.4102V36.581V36.731H0.429688H8.27673H8.42673V36.581V34.4102Z" fill="#F78F1E" stroke="#F78F1E" stroke-width="0.3"/>
</svg>
