<svg width="44" height="72" viewBox="0 0 44 72" fill="none" xmlns="http://www.w3.org/2000/svg">
<path d="M9.60116 72C9.23201 72 8.85957 71.9165 8.51459 71.7407C7.5324 71.2419 7.01713 70.1356 7.26433 69.06L13.7848 40.7995H2.40171C1.46017 40.7995 0.608712 40.2501 0.217593 39.3976C-0.173526 38.5439 -0.0296028 37.5398 0.586739 36.83L31.7873 0.829492C32.5102 -0.00548178 33.7077 -0.238396 34.6888 0.260391C35.6732 0.759178 36.1896 1.86662 35.9391 2.9411L29.4186 31.1995H40.8017C41.7432 31.1995 42.5947 31.7488 42.9858 32.6013C43.3769 33.455 43.233 34.4591 42.6167 35.1689L11.4161 71.1694C10.9481 71.7122 10.2812 72 9.60116 72ZM7.65765 35.9995H16.8017C17.5334 35.9995 18.2245 36.3334 18.6782 36.9047C19.1341 37.4749 19.3022 38.2242 19.1396 38.9394L14.1111 60.7323L35.5458 35.9995H26.4017C25.67 35.9995 24.979 35.6655 24.523 35.0942C24.0693 34.524 23.899 33.7747 24.0616 33.0595L29.0923 11.2667L7.65765 35.9995Z" fill="#F78F1E"/>
</svg>
